# xmcd CD database file
#
# Track frame offsets:
#	150
#	24115
#	49712
#	71792
#	121570
#	144522
#	169660
#	220825
#	236025
#	262927
#
# Disc length: 3881 seconds
#
# Revision: 17
# Processed by: cddbd v1.5.2PL0 Copyright (c) Steve Scherf et al.
# Submitted via: CDex 1.51
#
DISCID=810f270a
DTITLE=Vas - Sunyata
DYEAR=1997
DGENRE=New Age
TTITLE0=Ningal
TTITLE1=Saphyrro
TTITLE2=Refuge
TTITLE3=Sunyata
TTITLE4=Apsara
TTITLE5=Astrae
TTITLE6=Iman
TTITLE7=Remembrance
TTITLE8=Arc Of Ascent
TTITLE9=At Siva's Feet
EXTD=YEAR: 1997
EXTT0=
EXTT1=
EXTT2=
EXTT3=
EXTT4=
EXTT5=
EXTT6=
EXTT7=
EXTT8=
EXTT9=
PLAYORDER=
